<svg width="32" height="32" viewBox="0 0 32 32" fill="none" xmlns="http://www.w3.org/2000/svg">
<path d="M16.0003 9.33333V4H2.66699V28H29.3337V9.33333H16.0003ZM8.00033 25.3333H5.33366V22.6667H8.00033V25.3333ZM8.00033 20H5.33366V17.3333H8.00033V20ZM8.00033 14.6667H5.33366V12H8.00033V14.6667ZM8.00033 9.33333H5.33366V6.66667H8.00033V9.33333ZM13.3337 25.3333H10.667V22.6667H13.3337V25.3333ZM13.3337 20H10.667V17.3333H13.3337V20ZM13.3337 14.6667H10.667V12H13.3337V14.6667ZM13.3337 9.33333H10.667V6.66667H13.3337V9.33333ZM26.667 25.3333H16.0003V22.6667H18.667V20H16.0003V17.3333H18.667V14.6667H16.0003V12H26.667V25.3333ZM24.0003 14.6667H21.3337V17.3333H24.0003V14.6667ZM24.0003 20H21.3337V22.6667H24.0003V20Z" fill="#C40000"/>
</svg>
