<svg width="32" height="32" viewBox="0 0 32 32" fill="none" xmlns="http://www.w3.org/2000/svg">
<mask id="mask0" mask-type="alpha" maskUnits="userSpaceOnUse" x="0" y="0" width="32" height="32">
<path d="M32 16C32 7.16344 24.8366 0 16 0C7.16344 0 0 7.16344 0 16C0 24.8366 7.16344 32 16 32C24.8366 32 32 24.8366 32 16Z" fill="white"/>
</mask>
<g mask="url(#mask0)">
<path d="M48.7998 0H-15.2002V32H48.7998V0Z" fill="#3F9C35"/>
<path d="M48.7998 0H-15.2002V21.3333H48.7998V0Z" fill="#ED2939"/>
<path d="M48.7998 0H-15.2002V10.6667H48.7998V0Z" fill="#00B9E4"/>
<path d="M15.7336 20.8007C18.3846 20.8007 20.5336 18.6517 20.5336 16.0007C20.5336 13.3497 18.3846 11.2007 15.7336 11.2007C13.0826 11.2007 10.9336 13.3497 10.9336 16.0007C10.9336 18.6517 13.0826 20.8007 15.7336 20.8007Z" fill="white"/>
<path d="M16.7998 20C19.0089 20 20.7998 18.2091 20.7998 16C20.7998 13.7909 19.0089 12 16.7998 12C14.5907 12 12.7998 13.7909 12.7998 16C12.7998 18.2091 14.5907 20 16.7998 20Z" fill="#ED2939"/>
<path d="M21.0661 13.334L21.5757 14.7681L22.9505 14.1132L22.2957 15.4881L23.7327 16.0007L22.2987 16.5103L22.9535 17.8851L21.5787 17.2303L21.0661 18.6673L20.5565 17.2332L19.1816 17.8881L19.8365 16.5132L18.3994 16.0007L19.8335 15.491L19.1787 14.1162L20.5535 14.771L21.0661 13.334Z" fill="white"/>
<path d="M16 0.5C24.5604 0.5 31.5 7.43959 31.5 16C31.5 24.5604 24.5604 31.5 16 31.5C7.43959 31.5 0.5 24.5604 0.5 16C0.5 7.43959 7.43959 0.5 16 0.5Z" stroke="#F5F7FA"/>
</g>
</svg>
