<svg width="333" height="272" viewBox="0 0 333 272" fill="none" xmlns="http://www.w3.org/2000/svg">
<g opacity="0.5">
<path d="M53.6794 95.7503L29.6485 83.2668V8.05316L53.6794 17.7279V95.7503ZM53.6794 189.065L29.6485 174.709V100.744L53.6794 112.291V189.065ZM37.1387 -37.512L0 -20.0349V173.461L83.0159 223.395V133.825L69.596 111.979L83.0159 101.68V15.2312L123.588 -0.373257L37.1387 -37.512Z" fill="#F7F7F7"/>
<path d="M188.19 241.809L166.344 254.605L145.746 242.121V58.9243L166.344 69.2232L188.19 58.9243V241.809ZM184.757 10.2383L166.968 18.3526L149.179 10.2383L111.729 25.8428V238.688L166.344 271.769L222.208 237.752V27.0911L184.757 10.2383Z" fill="#F7F7F7"/>
<path d="M210.036 -0.685364L242.806 -14.7294L277.448 2.12342V80.1459L290.555 88.8844L303.351 68.9107V-8.1755L264.964 -25.0284L294.925 -37.512L333 -20.9712V59.2359L318.331 82.3305L333 92.6294V174.085L303.351 190.938V109.794L290.555 102.928L277.448 124.151V205.294L248.111 221.835V134.449L262.779 110.731L248.111 101.056V15.5433L210.036 -0.685364Z" fill="#F7F7F7"/>
</g>
</svg>
