<svg width="40" height="32" viewBox="0 0 40 32" fill="none" xmlns="http://www.w3.org/2000/svg">
<path d="M32 0H8C3.58172 0 0 3.58172 0 8V24C0 28.4183 3.58172 32 8 32H32C36.4183 32 40 28.4183 40 24V8C40 3.58172 36.4183 0 32 0Z" fill="#DE2910"/>
<path d="M8.71652 3.58618L11.4493 11.997L4.29297 6.80122H13.1401L5.98374 11.9998L8.71652 3.58618Z" fill="#FFDE00"/>
<path d="M17.0734 2.15942L16.815 5.09315L15.2965 2.56705L18.0092 3.71815L15.1357 4.37838L17.0734 2.15942Z" fill="#FFDE00"/>
<path d="M20.6778 5.60678L19.2971 8.21039L18.878 5.29102L20.9304 7.4095L18.0254 6.90428L20.6778 5.60678Z" fill="#FFDE00"/>
<path d="M21.0255 10.8055L18.706 12.6254L19.5184 9.78931L20.5317 12.5594L18.0889 10.9117L21.0255 10.8055Z" fill="#FFDE00"/>
<path d="M17.0158 12.9841L16.8809 15.9293L15.259 13.4635L18.0176 14.5027L15.1758 15.2835L17.0158 12.9841Z" fill="#FFDE00"/>
</svg>
