<svg width="56" height="40" viewBox="0 0 56 40" fill="none" xmlns="http://www.w3.org/2000/svg">
<path d="M48 0H8C3.58172 0 0 3.58172 0 8V32C0 36.4183 3.58172 40 8 40H48C52.4183 40 56 36.4183 56 32V8C56 3.58172 52.4183 0 48 0Z" fill="#DE2910"/>
<path d="M10.0004 3.92578L13.5263 14.7776L4.29297 8.07393H15.7078L6.47445 14.7813L10.0004 3.92578Z" fill="#FFDE00"/>
<path d="M20.7812 2.08521L20.4479 5.87039L18.4887 2.61113L21.9886 4.09632L18.2812 4.94817L20.7812 2.08521Z" fill="#FFDE00"/>
<path d="M25.433 6.53314L23.6515 9.8924L23.1107 6.12573L25.7589 8.85907L22.0107 8.20722L25.433 6.53314Z" fill="#FFDE00"/>
<path d="M25.8817 13.241L22.8891 15.5892L23.9372 11.9299L25.2446 15.504L22.0928 13.3781L25.8817 13.241Z" fill="#FFDE00"/>
<path d="M20.7071 16.0518L20.533 19.8517L18.4404 16.6703L21.9997 18.011L18.333 19.0184L20.7071 16.0518Z" fill="#FFDE00"/>
</svg>
