<svg width="22" height="17" viewBox="0 0 22 17" fill="none" xmlns="http://www.w3.org/2000/svg">
<path d="M20.6003 15.2002L12.0003 8.75016V7.84016C13.6503 7.35016 14.8003 5.67016 14.4303 3.79016C14.1703 2.48016 13.1303 1.39016 11.8203 1.09016C9.54026 0.570158 7.50026 2.30016 7.50026 4.50016H9.50026C9.50026 3.67016 10.1703 3.00016 11.0003 3.00016C11.8303 3.00016 12.5003 3.67016 12.5003 4.50016C12.5003 5.34016 11.8103 6.02016 10.9703 6.00016C10.4303 5.99016 10.0003 6.45016 10.0003 6.99016V8.75016L1.40026 15.2002C0.630259 15.7802 1.04026 17.0002 2.00026 17.0002H11.0003H20.0003C20.9603 17.0002 21.3703 15.7802 20.6003 15.2002ZM5.00026 15.0002L11.0003 10.5002L17.0003 15.0002H5.00026Z" fill="#351414"/>
</svg>
