<svg width="64" height="64" viewBox="0 0 64 64" fill="none" xmlns="http://www.w3.org/2000/svg">
<path d="M29.334 40.0002H34.6673V45.3335H29.334V40.0002ZM29.334 18.6668H34.6673V34.6668H29.334V18.6668ZM32.0007 5.3335C17.254 5.3335 5.33398 17.3335 5.33398 32.0002C5.33398 39.0726 8.1435 45.8554 13.1445 50.8563C15.6207 53.3326 18.5604 55.2968 21.7958 56.637C25.0311 57.9771 28.4987 58.6668 32.0007 58.6668C39.0731 58.6668 45.8559 55.8573 50.8568 50.8563C55.8578 45.8554 58.6673 39.0726 58.6673 32.0002C58.6673 28.4982 57.9776 25.0306 56.6374 21.7953C55.2973 18.5599 53.3331 15.6202 50.8568 13.144C48.3806 10.6678 45.4409 8.7035 42.2055 7.36338C38.9702 6.02325 35.5026 5.3335 32.0007 5.3335V5.3335ZM32.0007 53.3335C26.3427 53.3335 20.9165 51.0859 16.9157 47.0851C12.9149 43.0843 10.6673 37.6581 10.6673 32.0002C10.6673 26.3422 12.9149 20.916 16.9157 16.9152C20.9165 12.9144 26.3427 10.6668 32.0007 10.6668C37.6586 10.6668 43.0848 12.9144 47.0856 16.9152C51.0864 20.916 53.334 26.3422 53.334 32.0002C53.334 37.6581 51.0864 43.0843 47.0856 47.0851C43.0848 51.0859 37.6586 53.3335 32.0007 53.3335V53.3335Z" fill="#D12F5A"/>
</svg>
