<svg width="59" height="64" viewBox="0 0 59 64" fill="none" xmlns="http://www.w3.org/2000/svg">
<path d="M16.2738 8.84638L14.5264 8.08188L28.1782 2.34811L29.8164 3.16722L16.2738 8.84638ZM29.2158 0L9.88477 8.13649L15.8916 10.8122L35.3318 2.62114L29.2158 0Z" fill="white"/>
<path d="M36.1498 3.05762L42.2112 5.56956L23.1532 13.5968L20.8597 12.7231L36.4228 6.11563L34.8392 5.46034L19.4399 11.9586L17.0918 11.0849L36.1498 3.05762Z" fill="white"/>
<path d="M43.5224 6.22559L48.1094 8.19145L45.0514 9.44741L42.5941 8.46449L38.4985 10.2119L40.8466 11.2495L37.6794 12.56L35.2221 11.5771L30.089 13.7614L32.4917 14.7443L29.4337 16.0549L24.8467 14.089L43.5224 6.22559Z" fill="white"/>
<path d="M9.39246 33.2011L5.1877 31.0168V17.8565L9.39246 19.5493V33.2011ZM9.39246 49.5287L5.1877 47.0168V34.0748L9.39246 36.0953V49.5287ZM6.49827 9.88379L0 12.9418V46.7983L14.5256 55.5355V39.8632L12.1774 36.0407L14.5256 34.2387V19.1124L21.6245 16.3821L6.49827 9.88379Z" fill="white"/>
<path d="M32.9276 58.7574L29.1051 60.9963L25.501 58.812V26.7575L29.1051 28.5595L32.9276 26.7575V58.7574ZM32.3269 18.2388L29.2143 19.6586L26.1017 18.2388L19.5488 20.9691V58.2113L29.1051 63.9997L38.8798 58.0475V21.1876L32.3269 18.2388Z" fill="white"/>
<path d="M36.75 16.3275L42.4838 13.8701L48.5452 16.8189V30.4707L50.8387 31.9998L53.0776 28.5049V15.0169L46.3609 12.0681L51.6032 9.88379L58.2653 12.778V26.8121L55.6987 30.853L58.2653 32.655V46.9076L53.0776 49.8563V35.6584L50.8387 34.4571L48.5452 38.1704V52.3683L43.4121 55.2625V39.9724L45.9787 35.8223L43.4121 34.1294V19.167L36.75 16.3275Z" fill="white"/>
</svg>
