<svg width="121" height="122" viewBox="0 0 121 122" fill="none" xmlns="http://www.w3.org/2000/svg">
<g opacity="0.2" clip-path="url(#clip0)">
<path d="M101.152 93.5678L32.8721 105.607L24.5948 58.6649L33.1298 57.16L39.9021 95.5675L91.1121 86.5378L84.3398 48.1303L92.8748 46.6253L101.152 93.5678ZM15.06 29.5449L91.875 16.0004L96.3899 41.6054L19.5749 55.1499L15.06 29.5449ZM48.8186 58.7938L70.1561 55.0315C71.351 54.8208 72.4553 55.5941 72.666 56.789L73.7948 63.1902L48.1898 67.7051L47.061 61.3038C46.8503 60.1089 47.6237 59.0045 48.8186 58.7938ZM25.0999 36.575L26.6049 45.11L86.3499 34.5753L84.845 26.0403L25.0999 36.575Z" fill="white"/>
</g>
<defs>
<clipPath id="clip0">
<rect width="104" height="104" fill="white" transform="translate(6.10352e-05 18.9999) rotate(-10)"/>
</clipPath>
</defs>
</svg>
