<svg width="121" height="122" viewBox="0 0 121 122" fill="none" xmlns="http://www.w3.org/2000/svg">
<g opacity="0.2" clip-path="url(#clip0)">
<path d="M56.4774 39.8427L53.4675 22.7727L10.7925 30.2975L24.337 107.112L109.687 92.063L99.1524 32.318L56.4774 39.8427ZM39.9021 95.5676L31.3671 97.0725L29.8621 88.5375L38.3971 87.0326L39.9021 95.5676ZM36.8922 78.4976L28.3572 80.0025L26.8522 71.4675L35.3872 69.9626L36.8922 78.4976ZM33.8823 61.4276L25.3473 62.9325L23.8423 54.3975L32.3773 52.8926L33.8823 61.4276ZM30.8724 44.3576L22.3374 45.8625L20.8324 37.3275L29.3674 35.8226L30.8724 44.3576ZM56.9721 92.5577L48.4371 94.0626L46.9321 85.5276L55.4671 84.0227L56.9721 92.5577ZM53.9622 75.4877L45.4272 76.9926L43.9222 68.4576L52.4572 66.9527L53.9622 75.4877ZM50.9523 58.4177L42.4173 59.9226L40.9123 51.3876L49.4473 49.8827L50.9523 58.4177ZM47.9424 41.3477L39.4074 42.8526L37.9024 34.3176L46.4374 32.8127L47.9424 41.3477ZM99.6471 85.0329L65.5071 91.0527L64.0021 82.5177L72.5371 81.0128L71.0322 72.4778L62.4972 73.9827L60.9922 65.4477L69.5272 63.9428L68.0223 55.4078L59.4873 56.9127L57.9823 48.3777L92.1223 42.3579L99.6471 85.0329ZM85.0923 52.3979L76.5573 53.9028L78.0622 62.4378L86.5972 60.9329L85.0923 52.3979ZM88.1022 69.4679L79.5672 70.9728L81.0721 79.5078L89.6071 78.0029L88.1022 69.4679Z" fill="white"/>
</g>
<defs>
<clipPath id="clip0">
<rect width="104" height="104" fill="white" transform="translate(6.10352e-05 18.9999) rotate(-10)"/>
</clipPath>
</defs>
</svg>
