<svg width="121" height="122" viewBox="0 0 121 122" fill="none" xmlns="http://www.w3.org/2000/svg">
<g opacity="0.2" clip-path="url(#clip0)">
<path d="M91.3699 38.0904L23.0899 50.13L21.5849 41.595L89.8649 29.5554L91.3699 38.0904ZM98.8946 80.7654L30.6146 92.805L26.0998 67.2L94.3798 55.1604L98.8946 80.7654ZM88.36 21.0204L20.08 33.06C15.343 33.8952 12.2147 38.363 13.0499 43.0999L22.0796 94.3099C22.4788 96.5736 23.7608 98.5859 25.6436 99.9043C27.5265 101.223 29.8559 101.739 32.1196 101.34L100.4 89.3004C102.663 88.9012 104.676 87.6192 105.994 85.7364C107.312 83.8535 107.829 81.5241 107.43 79.2604L98.3999 28.0504C97.5647 23.3135 93.0542 20.1927 88.36 21.0204Z" fill="white"/>
</g>
<defs>
<clipPath id="clip0">
<rect width="104" height="104" fill="white" transform="translate(6.10352e-05 18.9999) rotate(-10)"/>
</clipPath>
</defs>
</svg>
