<svg width="103" height="102" viewBox="0 0 103 102" fill="none" xmlns="http://www.w3.org/2000/svg">
<g opacity="0.2" clip-path="url(#clip0)">
<path d="M85.8579 78.4062L28.0825 88.5935L21.0787 48.8729L28.3006 47.5995L34.031 80.0982L77.3625 72.4576L71.6321 39.959L78.8541 38.6856L85.8579 78.4062ZM13.0107 24.2329L78.0081 12.7721L81.8283 34.4379L16.831 45.8987L13.0107 24.2329ZM41.5757 48.982L59.6305 45.7984C60.6416 45.6202 61.576 46.2745 61.7543 47.2856L62.7094 52.702L41.0436 56.5223L40.0885 51.1058C39.9103 50.0948 40.5646 49.1603 41.5757 48.982ZM21.5061 30.1814L22.7795 37.4033L73.333 28.4894L72.0596 21.2675L21.5061 30.1814Z" fill="white"/>
</g>
<defs>
<clipPath id="clip0">
<rect width="88" height="88" fill="white" transform="translate(0.267578 15.3101) rotate(-10)"/>
</clipPath>
</defs>
</svg>
