<svg width="121" height="122" viewBox="0 0 121 122" fill="none" xmlns="http://www.w3.org/2000/svg">
<g opacity="0.2" clip-path="url(#clip0)">
<path d="M101.179 93.5681L32.899 105.608L24.6217 58.6652L33.1567 57.1602L39.929 95.5677L91.139 86.538L84.3667 48.1305L92.9017 46.6256L101.179 93.5681ZM15.0869 29.5452L91.9019 16.0006L96.4168 41.6056L19.6018 55.1502L15.0869 29.5452ZM48.8455 58.7941L70.183 55.0317C71.3779 54.821 72.4823 55.5943 72.693 56.7892L73.8217 63.1905L48.2167 67.7053L47.088 61.3041C46.8773 60.1092 47.6506 59.0048 48.8455 58.7941ZM25.1269 36.5752L26.6318 45.1102L86.3768 34.5756L84.8719 26.0406L25.1269 36.5752Z" fill="white"/>
</g>
<defs>
<clipPath id="clip0">
<rect width="104" height="104" fill="white" transform="translate(0.0273438 19) rotate(-10)"/>
</clipPath>
</defs>
</svg>
