<svg width="54" height="48" viewBox="0 0 54 48" fill="none" xmlns="http://www.w3.org/2000/svg">
<g clip-path="url(#clip0)">
<path d="M16.293 6.59425L14.8353 6.03195L26.2165 1.6869L27.5621 2.30032L16.293 6.59425ZM27.1136 0L10.9668 6.13419L16.0127 8.12779L32.2716 1.94249L27.1136 0Z" fill="#4A0000"/>
<path d="M32.9454 2.30029L37.9912 4.14054L22.0687 10.1725L20.1065 9.55908L33.1136 4.60061L31.8241 4.08943L18.9291 8.99677L16.9668 8.33224L32.9454 2.30029Z" fill="#4A0000"/>
<path d="M39.0568 4.65186L42.8692 6.13429L40.3463 7.10553L38.2719 6.33876L34.908 7.61671L36.8142 8.43461L34.1792 9.40585L32.1047 8.6902L27.8438 10.326L29.8621 11.0928L27.2831 12.064L23.4707 10.5816L39.0568 4.65186Z" fill="#4A0000"/>
<path d="M10.519 24.8945L6.98694 23.2588V13.3929L10.519 14.6709V24.8945ZM10.519 37.214L6.98694 35.3227V25.6102L10.519 27.1437V37.214ZM8.10824 7.41211L2.66992 9.71243V35.1182L14.8361 41.6613V29.9041L12.8738 27.0415L14.8361 25.7124V14.3642L20.779 12.3195L8.10824 7.41211Z" fill="#C40000"/>
<path d="M30.1984 44.1149L27.0027 45.8018L23.9751 44.166V20.0893L27.0027 21.4184L30.1984 20.0893V44.1149ZM29.6938 13.6484L27.1148 14.7219L24.4797 13.6484L18.9854 15.6932V43.6548L27.0027 47.9999L35.1882 43.5526V15.8465L29.6938 13.6484Z" fill="#C40000"/>
<path d="M33.3936 12.2683L38.1591 10.377L43.261 12.6262V22.8498L45.1672 24.0255L47.0735 21.4185V11.246L41.4669 9.04789L45.84 7.41211L51.3344 9.55907V20.0894L49.2039 23.1565L51.3344 24.5367V35.2204L47.0735 37.4185V26.7859L45.1672 25.8658L43.261 28.6773V39.3099L38.944 41.4568V30.0064L41.1306 26.8882L38.944 25.6102V14.3642L33.3936 12.2683Z" fill="#C40000"/>
</g>
<defs>
<clipPath id="clip0">
<rect width="54" height="48" fill="white" transform="matrix(1 0 0 -1 0 48)"/>
</clipPath>
</defs>
</svg>
