<svg width="136" height="40" viewBox="0 0 136 40" fill="none" xmlns="http://www.w3.org/2000/svg">
<g clip-path="url(#clip0)">
<path d="M11.792 5.29526L10.5773 4.82668L20.0616 1.2058L21.1829 1.71698L11.792 5.29526ZM20.8092 -0.199951L7.35352 4.91187L11.5584 6.57321L25.1075 1.41879L20.8092 -0.199951Z" fill="#4A0000"/>
<path d="M25.668 1.71704L29.8729 3.25058L16.6042 8.27721L14.9689 7.76603L25.8082 3.63397L24.7336 3.20799L13.9878 7.29744L12.3525 6.74367L25.668 1.71704Z" fill="#4A0000"/>
<path d="M30.7599 3.67651L33.9369 4.91187L31.8345 5.72124L30.1058 5.08227L27.3026 6.14723L28.8911 6.82881L26.6952 7.63818L24.9665 7.0418L21.4157 8.40495L23.0977 9.04393L20.9485 9.8533L17.7715 8.61794L30.7599 3.67651Z" fill="#4A0000"/>
<path d="M6.97941 20.5455L4.03599 19.1823V10.9608L6.97941 12.0258V20.5455ZM6.97941 30.8117L4.03599 29.2356V21.1419L6.97941 22.4198V30.8117ZM4.97041 5.97681L0.438477 7.89374V29.0652L10.5769 34.5178V24.7202L8.94169 22.3346L10.5769 21.2271V11.7702L15.5293 10.0663L4.97041 5.97681Z" fill="#C40000"/>
<path d="M23.3784 36.5626L20.7153 37.9683L18.1923 36.6052V16.5412L20.7153 17.6488L23.3784 16.5412V36.5626ZM22.9579 11.1738L20.8087 12.0684L18.6128 11.1738L14.0342 12.8778V36.1792L20.7153 39.8L27.5365 36.094V13.0056L22.9579 11.1738Z" fill="#C40000"/>
<path d="M26.042 10.0237L30.0133 8.44752L34.2649 10.3219V18.8416L35.8534 19.8213L37.4419 17.6488V9.1717L32.7698 7.33996L36.414 5.97681L40.9927 7.76594V16.5412L39.2173 19.0972L40.9927 20.2473V29.1504L37.4419 30.9821V22.1216L35.8534 21.3549L34.2649 23.6978V32.5583L30.6674 34.3474V24.8054L32.4895 22.2068L30.6674 21.1419V11.7702L26.042 10.0237Z" fill="#C40000"/>
<path d="M52.2056 13.5594C51.3179 14.028 50.617 14.667 50.1031 15.4337C49.5892 16.2431 49.3089 17.0951 49.3089 18.0748C49.3089 19.012 49.5892 19.9066 50.1031 20.716C50.617 21.5253 51.3179 22.1643 52.2056 22.6329C53.0933 23.1015 54.0744 23.3571 55.1023 23.3571C56.1301 23.3571 57.1113 23.1015 57.9522 22.6329C58.8399 22.1643 59.5407 21.5253 60.0547 20.716C60.5686 19.9066 60.8489 19.012 60.8489 18.0748C60.8489 17.1377 60.5686 16.2431 60.0547 15.4337C59.5407 14.6244 58.8399 13.9854 57.9522 13.5594C57.0645 13.0908 56.1301 12.8778 55.1023 12.8778C54.0744 12.8778 53.0933 13.0908 52.2056 13.5594ZM58.6998 12.6222C59.7744 13.176 60.6621 13.9428 61.3161 14.9226C61.9702 15.9023 62.2973 16.9673 62.2973 18.1174C62.2973 19.2676 61.9702 20.3326 61.3161 21.3123C60.6621 22.2921 59.8211 23.0589 58.6998 23.6552C57.6252 24.209 56.4104 24.5072 55.1023 24.5072C53.7941 24.5072 52.5793 24.209 51.5047 23.6552C50.4302 23.1015 49.5425 22.2921 48.8884 21.3123C48.2343 20.3326 47.9072 19.2676 47.9072 18.1174C47.9072 16.9673 48.2343 15.9023 48.8884 14.9226C49.5425 13.9428 50.3834 13.176 51.5047 12.6222C52.5793 12.0685 53.7941 11.7703 55.1023 11.7703C56.4104 11.7703 57.5785 12.0685 58.6998 12.6222Z" fill="#C40000"/>
<path d="M75.1451 11.8979H76.5V24.3793H75.0516L66.5951 13.7723V24.3793H65.2402V11.8979H66.6419L75.1451 22.4624V11.8979Z" fill="#C40000"/>
<path d="M80.8457 11.8979H90.003V13.0055H82.2006V17.4358H89.162V18.5433H82.2006V23.2718H90.2366V24.3793H80.8457V11.8979Z" fill="#C40000"/>
<path d="M100.328 21.2697C100.655 21.0567 100.795 20.7586 100.795 20.3752C100.795 20.0344 100.655 19.7788 100.328 19.5658C100.001 19.3528 99.6271 19.2676 99.0665 19.2676H96.5903V21.5253H99.0665C99.6271 21.6105 100.048 21.4827 100.328 21.2697ZM100.048 16.4561C100.281 16.2431 100.421 15.9875 100.421 15.6467C100.421 15.3059 100.281 15.093 100.048 14.88C99.814 14.7096 99.487 14.6244 99.0665 14.6244H96.5903V16.7543H99.0665C99.487 16.7543 99.814 16.6691 100.048 16.4561ZM102.103 12.2389C102.898 12.4944 103.505 12.8778 103.925 13.3464C104.346 13.815 104.58 14.3688 104.58 15.0078C104.58 15.6467 104.393 16.2005 103.972 16.6691C103.552 17.1377 102.991 17.4785 102.29 17.6915C103.131 17.8619 103.785 18.2026 104.299 18.799C104.813 19.3954 105.047 20.077 105.047 20.8438C105.047 21.5253 104.813 22.1643 104.393 22.6755C103.925 23.1867 103.318 23.6127 102.477 23.9108C101.683 24.209 100.702 24.3368 99.6271 24.3368H92.5723V11.8129H99.3001C100.375 11.8555 101.309 11.9833 102.103 12.2389Z" fill="#C40000"/>
<path d="M111.775 15.1355C111.261 15.4337 110.84 15.8597 110.56 16.3709C110.233 16.8821 110.093 17.4784 110.093 18.0748C110.093 18.7138 110.233 19.2676 110.56 19.8214C110.887 20.3326 111.261 20.7585 111.775 21.0567C112.289 21.3549 112.849 21.5253 113.457 21.5253C114.064 21.5253 114.578 21.3549 115.092 21.0567C115.606 20.7585 115.98 20.3326 116.26 19.8214C116.54 19.3102 116.68 18.7138 116.68 18.0748C116.68 17.4359 116.54 16.8821 116.26 16.3709C115.98 15.8597 115.559 15.4337 115.092 15.1355C114.578 14.8373 114.064 14.7095 113.457 14.7095C112.849 14.7095 112.289 14.8373 111.775 15.1355ZM117.241 12.4518C118.362 13.0056 119.297 13.7724 119.904 14.7521C120.558 15.7319 120.885 16.8395 120.885 18.0748C120.885 19.3102 120.558 20.4178 119.904 21.4401C119.25 22.4199 118.362 23.2293 117.241 23.783C116.12 24.3368 114.812 24.635 113.41 24.635C112.008 24.635 110.7 24.3368 109.579 23.783C108.457 23.2293 107.57 22.4199 106.916 21.4401C106.262 20.4603 105.935 19.3102 105.935 18.0748C105.935 16.8395 106.262 15.7319 106.916 14.7521C107.57 13.7724 108.457 13.0056 109.579 12.4518C110.7 11.898 112.008 11.5999 113.41 11.5999C114.812 11.5999 116.073 11.898 117.241 12.4518Z" fill="#C40000"/>
<path d="M121.539 11.8553H126.304L128.547 15.0928L130.836 11.8553H135.649L131.163 17.8191L136.069 24.3793H131.163L128.547 20.801L125.977 24.3793H121.212L126.071 17.9895L121.539 11.8553Z" fill="#C40000"/>
</g>
<defs>
<clipPath id="clip0">
<rect width="136" height="40" fill="white" transform="matrix(1 0 0 -1 0 40)"/>
</clipPath>
</defs>
</svg>
