<svg width="72" height="105" viewBox="0 0 72 105" fill="none" xmlns="http://www.w3.org/2000/svg">
<path fill-rule="evenodd" clip-rule="evenodd" d="M4 0C1.79086 0 0 1.79086 0 4V68C0 69.0243 0.385014 69.9587 1.01822 70.6663C1.21103 71.0876 1.48083 71.4822 1.82763 71.829L33.1713 103.173C34.7334 104.735 37.2661 104.735 38.8282 103.173L70.1719 71.829C70.5184 71.4825 70.788 71.0883 70.9808 70.6674C71.6146 69.9597 72 69.0248 72 68V4C72 1.79086 70.2091 0 68 0H4Z" fill="#C40000"/>
<g clip-path="url(#clip0)">
<path d="M25.2937 18.5942L23.836 18.032L35.2173 13.6869L36.5628 14.3003L25.2937 18.5942ZM36.1143 12L19.9675 18.1342L25.0134 20.1278L41.2723 13.9425L36.1143 12Z" fill="white"/>
<path d="M41.9454 14.3003L46.9912 16.1405L31.0687 22.1725L29.1065 21.5591L42.1136 16.6006L40.8241 16.0894L27.9291 20.9968L25.9668 20.3322L41.9454 14.3003Z" fill="white"/>
<path d="M48.0568 16.6519L51.8692 18.1343L49.3463 19.1055L47.2719 18.3388L43.908 19.6167L45.8142 20.4346L43.1792 21.4059L41.1047 20.6902L36.8438 22.326L38.8621 23.0928L36.2831 24.064L32.4707 22.5816L48.0568 16.6519Z" fill="white"/>
<path d="M19.5193 36.8945L15.9872 35.2588V25.3929L19.5193 26.6709V36.8945ZM19.5193 49.214L15.9872 47.3227V37.6102L19.5193 39.1437V49.214ZM17.1085 19.4121L11.6702 21.7124V47.1182L23.8363 53.6613V41.9041L21.874 39.0415L23.8363 37.7124V26.3642L29.7792 24.3195L17.1085 19.4121Z" fill="white"/>
<path d="M39.1984 56.1149L36.0027 57.8018L32.9751 56.166V32.0893L36.0027 33.4184L39.1984 32.0893V56.1149ZM38.6938 25.6484L36.1148 26.7219L33.4797 25.6484L27.9854 27.6932V55.6548L36.0027 59.9999L44.1882 55.5526V27.8465L38.6938 25.6484Z" fill="white"/>
<path d="M42.3938 24.2683L47.1593 22.377L52.2613 24.6262V34.8498L54.1675 36.0255L56.0737 33.4185V23.246L50.4672 21.0479L54.8403 19.4121L60.3347 21.5591V32.0894L58.2042 35.1565L60.3347 36.5367V47.2204L56.0737 49.4185V38.7859L54.1675 37.8658L52.2613 40.6773V51.3099L47.9443 53.4568V42.0064L50.1308 38.8882L47.9443 37.6102V26.3642L42.3938 24.2683Z" fill="white"/>
</g>
<defs>
<clipPath id="clip0">
<rect width="54" height="48" fill="white" transform="matrix(1 0 0 -1 9 60)"/>
</clipPath>
</defs>
</svg>
