<svg width="24" height="24" viewBox="0 0 24 24" fill="none" xmlns="http://www.w3.org/2000/svg">
<path d="M13.0008 2.03027C17.7308 2.50027 21.5008 6.25027 21.9508 11.0003C22.5008 16.5003 18.5008 21.3803 13.0008 21.9303V19.9303C16.6408 19.5003 19.5008 16.6103 19.9608 12.9703C20.5008 8.58027 17.3908 4.59027 13.0008 4.05027V2.05027V2.03027ZM11.0008 2.06027V4.06027C9.57078 4.26027 8.22078 4.84027 7.10078 5.74027L5.67078 4.26027C7.19078 3.00027 9.05078 2.25027 11.0008 2.06027ZM4.26078 5.67027L5.69078 7.10027C4.80078 8.23027 4.24078 9.58027 4.05078 11.0003H2.05078C2.25078 9.04027 3.00078 7.19027 4.26078 5.67027ZM2.06078 13.0003H4.06078C4.24078 14.4203 4.81078 15.7703 5.69078 16.9003L4.27078 18.3303C3.03078 16.8103 2.26078 14.9603 2.06078 13.0003ZM7.10078 18.3703C8.23078 19.2503 9.58078 19.8203 11.0008 20.0003V22.0003C9.04078 21.7903 7.18078 21.0003 5.67078 19.7403L7.10078 18.3703ZM12.0008 7.50027L7.50078 12.0003H11.0008V16.0003H13.0008V12.0003H16.5008L12.0008 7.50027Z" fill="white"/>
</svg>
