<svg width="24" height="24" viewBox="0 0 24 24" fill="none" xmlns="http://www.w3.org/2000/svg">
<path d="M12.9998 2.03027C17.7298 2.50027 21.4998 6.25027 21.9498 11.0003C22.4998 16.5003 18.4998 21.3803 12.9998 21.9303V19.9303C16.6398 19.5003 19.4998 16.6103 19.9598 12.9703C20.4998 8.58027 17.3898 4.59027 12.9998 4.05027V2.05027V2.03027ZM10.9998 2.06027V4.06027C9.5698 4.26027 8.2198 4.84027 7.0998 5.74027L5.6698 4.26027C7.18981 3.00027 9.0498 2.25027 10.9998 2.06027ZM4.2598 5.67027L5.6898 7.10027C4.7998 8.23027 4.2398 9.58027 4.0498 11.0003H2.0498C2.2498 9.04027 2.9998 7.19027 4.2598 5.67027ZM2.0598 13.0003H4.0598C4.2398 14.4203 4.8098 15.7703 5.6898 16.9003L4.2698 18.3303C3.0298 16.8103 2.2598 14.9603 2.0598 13.0003ZM7.0998 18.3703C8.2298 19.2503 9.5798 19.8203 10.9998 20.0003V22.0003C9.0398 21.7903 7.1798 21.0003 5.6698 19.7403L7.0998 18.3703ZM11.9998 7.50027L7.4998 12.0003H10.9998V16.0003H12.9998V12.0003H16.4998L11.9998 7.50027Z" fill="#C40000"/>
</svg>
