<svg width="32" height="32" viewBox="0 0 32 32" fill="none" xmlns="http://www.w3.org/2000/svg">
<mask id="mask0" mask-type="alpha" maskUnits="userSpaceOnUse" x="0" y="0" width="32" height="32">
<path d="M32 16C32 7.16344 24.8366 0 16 0C7.16344 0 0 7.16344 0 16C0 24.8366 7.16344 32 16 32C24.8366 32 32 24.8366 32 16Z" fill="white"/>
</mask>
<g mask="url(#mask0)">
<path d="M48 0H0V16H48V0Z" fill="white"/>
<path d="M48 16H0V32H48V16Z" fill="#D52B1E"/>
<path d="M48 10.6665H0V21.3332H48V10.6665Z" fill="#0039A6"/>
<path d="M16 0.5C24.5604 0.5 31.5 7.43959 31.5 16C31.5 24.5604 24.5604 31.5 16 31.5C7.43959 31.5 0.5 24.5604 0.5 16C0.5 7.43959 7.43959 0.5 16 0.5Z" stroke="#F5F7FA"/>
</g>
</svg>
