<svg width="32" height="32" viewBox="0 0 32 32" fill="none" xmlns="http://www.w3.org/2000/svg">
<path d="M22.6671 6.66699L4.00047 6.66699C2.5338 6.66699 1.3338 7.85366 1.3338 9.33366L1.3338 21.3337H4.00047C4.00047 23.5337 5.78713 25.3337 8.00047 25.3337C10.2138 25.3337 12.0005 23.5337 12.0005 21.3337H19.3338C19.3338 23.5337 21.1205 25.3337 23.3338 25.3337C25.5471 25.3337 27.3338 23.5337 27.3338 21.3337H30.6671V14.667L22.6671 6.66699ZM4.00047 14.667V9.33366H9.3338V14.667H4.00047ZM8.00047 23.3337C6.8938 23.3337 6.00047 22.4403 6.00047 21.3337C6.00047 20.227 6.8938 19.3337 8.00047 19.3337C9.10713 19.3337 10.0005 20.227 10.0005 21.3337C10.0005 22.4403 9.10713 23.3337 8.00047 23.3337ZM17.3338 14.667H12.0005V9.33366H17.3338V14.667ZM23.3338 23.3337C22.2271 23.3337 21.3338 22.4403 21.3338 21.3337C21.3338 20.227 22.2271 19.3337 23.3338 19.3337C24.4405 19.3337 25.3338 20.227 25.3338 21.3337C25.3338 22.4403 24.4405 23.3337 23.3338 23.3337ZM20.0005 14.667V9.33366H21.3338L26.6671 14.667H20.0005Z" fill="#C40000"/>
</svg>
