<svg width="32" height="32" viewBox="0 0 32 32" fill="none" xmlns="http://www.w3.org/2000/svg">
<path d="M25.3338 9.33366C25.3338 7.86699 24.1472 6.66699 22.6672 6.66699H18.6672V9.33366L22.6672 9.33366V12.867L18.0005 18.667H13.3338V12.0003H8.00051C5.05384 12.0003 2.66718 14.387 2.66718 17.3337L2.66718 21.3337H5.33384C5.33384 23.547 7.12051 25.3337 9.33384 25.3337C11.5472 25.3337 13.3338 23.547 13.3338 21.3337H19.3338L25.3338 13.8003V9.33366ZM9.33384 22.667C8.60051 22.667 8.00051 22.067 8.00051 21.3337H10.6672C10.6672 22.067 10.0672 22.667 9.33384 22.667ZM10.6672 18.667H5.33384L5.33384 17.3337C5.33384 15.867 6.53384 14.667 8.00051 14.667H10.6672V18.667ZM25.3338 17.3337C23.1205 17.3337 21.3338 19.1203 21.3338 21.3337C21.3338 23.547 23.1205 25.3337 25.3338 25.3337C27.5472 25.3337 29.3338 23.547 29.3338 21.3337C29.3338 19.1203 27.5472 17.3337 25.3338 17.3337ZM25.3338 22.667C24.6005 22.667 24.0005 22.067 24.0005 21.3337C24.0005 20.6003 24.6005 20.0003 25.3338 20.0003C26.0672 20.0003 26.6672 20.6003 26.6672 21.3337C26.6672 22.067 26.0672 22.667 25.3338 22.667ZM13.3338 10.667H6.66718V8.00033H13.3338V10.667Z" fill="#C40000"/>
</svg>
