<svg width="32" height="32" viewBox="0 0 32 32" fill="none" xmlns="http://www.w3.org/2000/svg">
<path d="M28 21.9998C28 22.5065 27.72 22.9465 27.2933 23.1732L16.76 29.0932C16.5467 29.2532 16.28 29.3332 16 29.3332C15.72 29.3332 15.4533 29.2532 15.24 29.0932L4.70667 23.1732C4.28 22.9465 4 22.5065 4 21.9998V9.99984C4 9.49317 4.28 9.05317 4.70667 8.8265L15.24 2.9065C15.4533 2.7465 15.72 2.6665 16 2.6665C16.28 2.6665 16.5467 2.7465 16.76 2.9065L27.2933 8.8265C27.72 9.05317 28 9.49317 28 9.99984V21.9998ZM16 5.53317L13.48 6.95984L21.3333 11.4798L23.9467 9.99984L16 5.53317ZM8.05333 9.99984L16 14.4665L18.6133 12.9998L10.7733 8.4665L8.05333 9.99984ZM6.66667 21.2132L14.6667 25.7198V16.7732L6.66667 12.2798V21.2132ZM25.3333 21.2132V12.2798L17.3333 16.7732V25.7198L25.3333 21.2132Z" fill="#C40000"/>
</svg>
