<svg width="32" height="32" viewBox="0 0 32 32" fill="none" xmlns="http://www.w3.org/2000/svg">
<path d="M26.6672 10.6673L5.33384 10.6673V8.00065L26.6672 8.00065V10.6673ZM26.6672 24.0006H5.33384L5.33384 16.0007H26.6672V24.0006ZM26.6672 5.33398L5.33384 5.33398C3.85384 5.33398 2.66718 6.52065 2.66718 8.00065L2.66718 24.0006C2.66718 24.7079 2.94813 25.3862 3.44822 25.8863C3.94832 26.3864 4.6266 26.6673 5.33384 26.6673H26.6672C27.3744 26.6673 28.0527 26.3864 28.5528 25.8863C29.0529 25.3862 29.3338 24.7079 29.3338 24.0006V8.00065C29.3338 6.52065 28.1338 5.33398 26.6672 5.33398Z" fill="#C40000"/>
</svg>
