<svg width="32" height="32" viewBox="0 0 32 32" fill="none" xmlns="http://www.w3.org/2000/svg">
<path d="M24.9605 19.6805C25.4272 18.5471 25.6805 17.3338 25.6805 16.0005C25.6805 15.0405 25.5338 14.1205 25.2805 13.2671C24.4138 13.4671 23.5072 13.5738 22.5605 13.5738C18.4805 13.5738 14.8672 11.5605 12.6672 8.4538C11.4805 11.3338 9.21384 13.6805 6.36051 14.9605C6.30718 15.2938 6.30718 15.6538 6.30718 16.0005C6.30718 18.5713 7.32843 21.0368 9.14629 22.8547C10.9641 24.6725 13.4297 25.6938 16.0005 25.6938C17.4005 25.6938 18.7472 25.3871 19.9605 24.8405C20.7205 26.2938 21.0672 27.0138 21.0405 27.0138C18.8538 27.7471 17.1605 28.1071 16.0005 28.1071C12.7738 28.1071 9.69384 26.8405 7.42718 24.5605C6.04051 23.1738 5.01384 21.4805 4.44051 19.6405H2.66718L2.66718 13.5738H4.12051C5.24051 8.0538 10.1338 3.8938 16.0005 3.8938C19.2005 3.8938 22.2805 5.16047 24.5605 7.44047C26.2538 9.12047 27.3872 11.2671 27.8538 13.5738H29.3338V19.5605V19.5871V19.6405H29.2538L24.5072 24.0005L17.4405 23.2005V20.9738H23.8805L24.9605 19.6805ZM12.3605 15.6938C12.7605 15.6938 13.1472 15.8538 13.4272 16.1471C13.7072 16.4271 13.8672 16.8138 13.8672 17.2138C13.8672 17.6138 13.7072 18.0005 13.4272 18.2805C13.1472 18.5605 12.7605 18.7205 12.3605 18.7205C11.5205 18.7205 10.8405 18.0538 10.8405 17.2138C10.8405 16.3738 11.5205 15.6938 12.3605 15.6938ZM19.6272 15.6938C20.4672 15.6938 21.1338 16.3738 21.1338 17.2138C21.1338 18.0538 20.4672 18.7205 19.6272 18.7205C18.7872 18.7205 18.1072 18.0538 18.1072 17.2138C18.1072 16.8107 18.2673 16.4241 18.5524 16.139C18.8374 15.8539 19.224 15.6938 19.6272 15.6938V15.6938Z" fill="#C40000"/>
</svg>
