<svg width="32" height="32" viewBox="0 0 32 32" fill="none" xmlns="http://www.w3.org/2000/svg">
<path d="M24.0005 16.0405V13.3338H26.6672V16.2405C26.0005 16.0938 25.3338 16.0005 24.6672 16.0005C24.4405 16.0005 24.2272 16.0005 24.0005 16.0405ZM12.6672 14.6672C12.2938 14.6672 12.0005 14.9605 12.0005 15.3338V17.3338H20.0005V15.3338C20.0005 14.9605 19.7072 14.6672 19.3338 14.6672H12.6672ZM8.00049 25.3338V13.3338H5.33382L5.33382 28.0005H16.6672C16.3205 27.1738 16.1205 26.2672 16.0405 25.3338H8.00049ZM28.0005 12.0005L4.00049 12.0005L4.00049 4.00049L28.0005 4.00049V12.0005ZM25.3338 6.66716L6.66716 6.66716V9.33382H25.3338V6.66716ZM29.3338 24.6672V19.3338L27.7738 20.8938C26.8138 19.9338 25.4805 19.3338 24.0005 19.3338C21.0538 19.3338 18.6672 21.7205 18.6672 24.6672C18.6672 27.6138 21.0538 30.0005 24.0005 30.0005C26.2405 30.0005 28.1605 28.6272 28.9472 26.6672H26.6672C26.0538 27.4805 25.0938 28.0005 24.0005 28.0005C22.1605 28.0005 20.6672 26.5072 20.6672 24.6672C20.6672 22.8272 22.1605 21.3338 24.0005 21.3338C24.9205 21.3338 25.7605 21.7072 26.3605 22.3072L24.0005 24.6672H29.3338Z" fill="#C40000"/>
</svg>
