<svg width="27" height="28" viewBox="0 0 27 28" fill="none" xmlns="http://www.w3.org/2000/svg">
<path d="M21.6663 22C20.1863 22 18.9997 23.1866 18.9997 24.6666C18.9997 25.3739 19.2806 26.0521 19.7807 26.5522C20.2808 27.0523 20.9591 27.3333 21.6663 27.3333C22.3736 27.3333 23.0519 27.0523 23.552 26.5522C24.0521 26.0521 24.333 25.3739 24.333 24.6666C24.333 23.1866 23.133 22 21.6663 22ZM0.333008 0.666626V3.33329H2.99967L7.79967 13.4533L5.98634 16.72C5.78634 17.0933 5.66634 17.5333 5.66634 18C5.66634 18.7072 5.94729 19.3855 6.44739 19.8856C6.94749 20.3857 7.62576 20.6666 8.33301 20.6666H24.333V18H8.89301C8.8046 18 8.71982 17.9648 8.6573 17.9023C8.59479 17.8398 8.55967 17.755 8.55967 17.6666C8.55967 17.6 8.57301 17.5466 8.59967 17.5066L9.79967 15.3333H19.733C20.733 15.3333 21.613 14.7733 22.0663 13.96L26.8397 5.33329C26.933 5.11996 26.9997 4.89329 26.9997 4.66663C26.9997 4.313 26.8592 3.97387 26.6091 3.72382C26.3591 3.47377 26.02 3.33329 25.6663 3.33329H5.94634L4.69301 0.666626H0.333008ZM8.33301 22C6.85301 22 5.66634 23.1866 5.66634 24.6666C5.66634 25.3739 5.94729 26.0521 6.44739 26.5522C6.94749 27.0523 7.62576 27.3333 8.33301 27.3333C9.04025 27.3333 9.71853 27.0523 10.2186 26.5522C10.7187 26.0521 10.9997 25.3739 10.9997 24.6666C10.9997 23.1866 9.79967 22 8.33301 22Z" fill="black"/>
</svg>
