<svg id="Media_Markt-1-Copy" xmlns="http://www.w3.org/2000/svg" width="103.419" height="13.829" viewBox="0 0 103.419 13.829">
  <path id="Fill-2" d="M90.355,5.064l.031-.2a.271.271,0,0,0-.266-.321H88.708a.271.271,0,0,0-.27.22L88.4,4.98l-1.509,8.248a.276.276,0,0,0,.064.224.284.284,0,0,0,.216.1l.7-.011h.655a.27.27,0,0,0,.265-.217L89.822,8.2a2.224,2.224,0,0,1,1.961-1.8,1.04,1.04,0,0,0,.227-.024c-.521,3.1-1.137,6.778-1.148,6.839a.271.271,0,0,0,.267.316H92.65a.268.268,0,0,0,.258-.191c.049-.149.412-2.258.631-3.525.563.854,2.361,3.591,2.361,3.591a.272.272,0,0,0,.227.122l1.818,0a.3.3,0,0,0,.094-.018.286.286,0,0,0,.124.028l1.535-.011a.27.27,0,0,0,.265-.224l1.185-6.843,1.762,0a.273.273,0,0,0,.268-.225l.237-1.381a.234.234,0,0,0,0-.046.277.277,0,0,0-.063-.174.273.273,0,0,0-.209-.1h-1.735c.085-.488.394-2.288.394-2.288a.426.426,0,0,0,0-.046.271.271,0,0,0-.271-.272h-1.525a.273.273,0,0,0-.268.225s-.34,2.012-.4,2.381l-.28.007-.238,0-.252,0a.271.271,0,0,0-.234.126.267.267,0,0,0-.224-.123l-1.4,0h-.409a.279.279,0,0,0-.2.087s-1.4,1.61-2.151,2.418c.218-1.28.82-4.795.82-4.795a.42.42,0,0,0,0-.047.274.274,0,0,0-.272-.271l-1.519,0a.271.271,0,0,0-.27.224c-.035.21-.193,1.145-.4,2.391l-.007-.011a.265.265,0,0,0-.214-.093A3.422,3.422,0,0,0,90.355,5.064Zm7.611,7.722-2.614-4.2c.211-.25,2.436-2.961,2.888-3.492l-.2,1.051a.269.269,0,0,0,.059.224.273.273,0,0,0,.209.1H99C98.923,6.948,98.2,11.366,97.966,12.786ZM45.8,9.275a3.675,3.675,0,0,1-2.389,2.41,2.588,2.588,0,0,1-1.757-.229,2.442,2.442,0,0,1-.8-1.246,2.846,2.846,0,0,1-.043-.486A3.452,3.452,0,0,1,42.343,7a2.614,2.614,0,0,1,2.026-.394,1.843,1.843,0,0,1,1.236.91,2.327,2.327,0,0,1,.281,1.128A2.181,2.181,0,0,1,45.8,9.275ZM38.06,2.156l-.328,1.783a.272.272,0,0,0,.27.324h1.587a.272.272,0,0,0,.268-.224l.3-1.768a.283.283,0,0,0-.059-.224.275.275,0,0,0-.207-.1l-1.56-.013A.272.272,0,0,0,38.06,2.156ZM34.631,9.275h0a2.2,2.2,0,0,0,.088-.633,2.333,2.333,0,0,0-.28-1.128,1.848,1.848,0,0,0-1.238-.91A2.615,2.615,0,0,0,31.176,7a3.456,3.456,0,0,0-1.532,2.726,2.847,2.847,0,0,0,.044.486,2.439,2.439,0,0,0,.8,1.246,2.588,2.588,0,0,0,1.757.229A3.681,3.681,0,0,0,34.631,9.275ZM21.613,8h0l4.209-.039a1.542,1.542,0,0,0-.524-.917,2.347,2.347,0,0,0-1.585-.466A2.914,2.914,0,0,0,21.613,8Zm63.78,1.273A3.672,3.672,0,0,1,83,11.686a2.58,2.58,0,0,1-1.755-.229,2.438,2.438,0,0,1-.8-1.246,2.972,2.972,0,0,1-.044-.486A3.45,3.45,0,0,1,81.941,7a2.612,2.612,0,0,1,2.025-.394,1.843,1.843,0,0,1,1.236.91,2.347,2.347,0,0,1,.28,1.128A2.181,2.181,0,0,1,85.393,9.275ZM0,13.4v-.169a.194.194,0,0,1,.032-.049L11.341.144A.208.208,0,0,1,11.5.074h1.826a.206.206,0,0,1,.157.075.211.211,0,0,1,.046.128.262.262,0,0,1-.005.042s-1.416,7-1.679,8.262C12.732,7.573,19.314.144,19.314.144a.2.2,0,0,1,.151-.069h1.718a.2.2,0,0,1,.2.253l-1.8,7.324c.015-.027.028-.054.041-.079a5.674,5.674,0,0,1,4.255-3.059h.019a3.686,3.686,0,0,1,3.568,1.744l.012.019a5.164,5.164,0,0,1,.5,1.987,5.8,5.8,0,0,1,1.581-2.379,4.757,4.757,0,0,1,4.333-1.3.338.338,0,0,1,.051.016l.142.061a3.6,3.6,0,0,1,1.023.59c.166-.78.652-3.095.652-3.095a.274.274,0,0,1,.267-.216h1.41a.272.272,0,0,1,.27.321L35.644,13.353a.273.273,0,0,1-.269.222l-1.4,0a.269.269,0,0,1-.274-.27.233.233,0,0,1,.005-.05s.035-.186.058-.309a4.786,4.786,0,0,1-3.377.782,3.586,3.586,0,0,1-2.62-2.752,5.453,5.453,0,0,1-.088-1.038.273.273,0,0,1-.183.071l-6.495,0a.294.294,0,0,0-.011.079,1.434,1.434,0,0,0,.079.376s.019.067.028.1a1.959,1.959,0,0,0,1.887,1.212,3.16,3.16,0,0,0,2.294-1.187.268.268,0,0,1,.2-.091h1.448a.275.275,0,0,1,.248.39,5.171,5.171,0,0,1-4.6,2.89,3.64,3.64,0,0,1-3.1-1.8,4.279,4.279,0,0,1-.453-2.05l-.85,3.451a.205.205,0,0,1-.2.157H16.138a.208.208,0,0,1-.2-.2.252.252,0,0,1,.005-.048c.716-2.979,1.719-7.214,2.083-8.89L10.28,13.444a.2.2,0,0,1-.153.071l-1.548.014a.206.206,0,0,1-.205-.2.177.177,0,0,1,0-.043C9.033,10.267,9.95,5.974,10.272,4.3L2.618,13.456a.21.21,0,0,1-.163.072c-.528-.018-.927-.016-1.389-.014H.184A.2.2,0,0,1,0,13.4ZM87.91,4.644a.271.271,0,0,0-.208-.1H86.291a.272.272,0,0,0-.267.216l-.109.534a3.269,3.269,0,0,0-1.074-.635L84.7,4.6a.331.331,0,0,0-.052-.016,4.756,4.756,0,0,0-4.333,1.3,5.9,5.9,0,0,0-1.423,1.974L80.748.327a.2.2,0,0,0-.037-.175.2.2,0,0,0-.16-.078H78.833a.2.2,0,0,0-.153.069S72.1,7.573,71.207,8.581C71.469,7.315,72.937.319,72.937.319s0-.029,0-.042A.2.2,0,0,0,72.9.149a.205.205,0,0,0-.158-.075h-1.9a.2.2,0,0,0-.154.069L61.207,11.092a13.049,13.049,0,0,0-.917-3.33c-1.27-2.6-4.1-3.447-5.7-1.953l-.011,0-.251.182c1.163-1.856,4.113-1.773,6.012.412A10.247,10.247,0,0,1,61.783,8.93a7.027,7.027,0,0,0,.287-1.65,10.391,10.391,0,0,0-2.1-2.124c-2.4-1.619-5.271-.935-5.913,1.16l-.008.009-.124.283c.078-2.19,2.673-3.593,5.41-2.65a10.238,10.238,0,0,1,2.589,1.521c-.018-.084-.035-.167-.058-.251a6.869,6.869,0,0,0-.607-1.567,10.394,10.394,0,0,0-2.861-.779c-2.888-.2-5.032,1.825-4.541,3.961l0,.011.032.308c-1.026-1.936.52-4.447,3.36-5a10.236,10.236,0,0,1,2.94.013,6.956,6.956,0,0,0-1.4-1.137,10.3,10.3,0,0,0-2.839.753c-2.6,1.269-3.445,4.1-1.952,5.7l0,.009.184.253C52.317,6.59,52.4,3.64,54.584,1.741A10.258,10.258,0,0,1,57.122.288,6.885,6.885,0,0,0,55.192,0a10.372,10.372,0,0,0-2.01,2.015c-1.618,2.4-.935,5.271,1.159,5.915l.008.007.285.127c-2.189-.079-3.591-2.675-2.649-5.412A10.193,10.193,0,0,1,53.375.231a6.983,6.983,0,0,0-1.552.61A10.337,10.337,0,0,0,51.089,3.6c-.2,2.889,1.825,5.034,3.96,4.543l.009,0,.311-.035c-1.937,1.028-4.449-.519-5-3.361a10.189,10.189,0,0,1,0-2.852,7.013,7.013,0,0,0-1.2,1.5,10.375,10.375,0,0,0,.736,2.7c1.269,2.6,4.1,3.446,5.7,1.952l.012,0,.251-.182c-1.162,1.856-4.113,1.773-6.01-.412a10.518,10.518,0,0,1-1.482-2.633.268.268,0,0,0-.272-.278H46.695a.273.273,0,0,0-.268.216,1.318,1.318,0,0,0-.158.489,3.618,3.618,0,0,0-1.023-.59L45.1,4.6a.345.345,0,0,0-.051-.016,4.756,4.756,0,0,0-4.332,1.3,5.827,5.827,0,0,0-1.584,2.379s-.009.022-.026.058l.6-3.455a.272.272,0,0,0-.27-.318l-1.5,0a.275.275,0,0,0-.268.225l-1.554,8.478a.279.279,0,0,0,.06.224.272.272,0,0,0,.209.1l1.585,0a.272.272,0,0,0,.27-.227l.6-3.449c.006.022.012.036.012.036a5.267,5.267,0,0,0,.087,1.038,3.586,3.586,0,0,0,2.621,2.752,4.787,4.787,0,0,0,3.377-.782c-.022.123-.058.309-.058.309a.28.28,0,0,0,.058.224.272.272,0,0,0,.211.1l1.4,0a.271.271,0,0,0,.268-.222L48.042,6.68A16.074,16.074,0,0,0,50.169,8.71c2.4,1.62,5.269.936,5.911-1.158l.009-.009.125-.284c-.078,2.19-2.674,3.593-5.411,2.65A10.236,10.236,0,0,1,48.38,8.518c.011.045.019.092.031.138a7.011,7.011,0,0,0,.638,1.622,10.3,10.3,0,0,0,2.694.708c2.886.2,5.031-1.825,4.54-3.961l0-.011-.034-.31c1.027,1.936-.519,4.451-3.36,5a10.129,10.129,0,0,1-2.8.007,6.958,6.958,0,0,0,1.256,1.046,10.262,10.262,0,0,0,2.808-.751c2.6-1.268,3.447-4.1,1.953-5.7l0-.012-.182-.25c1.857,1.163,1.774,4.112-.41,6.012a10.35,10.35,0,0,1-2.581,1.469,6.917,6.917,0,0,0,1.3.3h.63a10.351,10.351,0,0,0,2.048-2.047c1.619-2.4.937-5.272-1.158-5.914l-.009-.009-.283-.125c2.19.079,3.592,2.675,2.65,5.413a10.271,10.271,0,0,1-1.514,2.58c.084-.019.165-.036.248-.058a7.007,7.007,0,0,0,1.49-.569,10.331,10.331,0,0,0,.766-2.837c.2-2.886-1.824-5.032-3.961-4.541l-.009,0-.309.033c1.935-1.026,4.448.52,5,3.362a8.106,8.106,0,0,1,.08,2.85,3.47,3.47,0,0,1-.32.892q-.082.144-.205.341l0,0s0,.006-.006.011a.014.014,0,0,0,0,.008.2.2,0,0,0-.012.186.2.2,0,0,0,.186.117h.88c.463,0,.86,0,1.389.014a.212.212,0,0,0,.164-.072L69.638,4.3c-.323,1.67-1.239,5.963-1.894,8.978a.265.265,0,0,0,0,.043.2.2,0,0,0,.205.2l1.548-.014a.2.2,0,0,0,.153-.071s6.864-8.032,7.743-9.058c-.366,1.676-1.368,5.911-2.083,8.89a.161.161,0,0,0-.007.048.206.206,0,0,0,.044.126.2.2,0,0,0,.161.078h1.831a.2.2,0,0,0,.2-.157l.793-3.216.11-.452c0,.129.005.231.005.231a5.407,5.407,0,0,0,.089,1.038,3.585,3.585,0,0,0,2.619,2.752,4.79,4.79,0,0,0,3.378-.782c-.023.123-.058.309-.058.309a.267.267,0,0,0,.267.32l1.4,0a.271.271,0,0,0,.269-.222l1.264-6.718.3-1.81a.264.264,0,0,0-.064-.181Z" fill="#d9222a" fill-rule="evenodd"/>
</svg>
