<svg width="18" height="18" viewBox="0 0 18 18" fill="none" xmlns="http://www.w3.org/2000/svg">
<path d="M17.3671 6.992C17.3671 10.512 16.6711 13.136 15.2791 14.864C13.8871 16.576 11.6711 17.432 8.63106 17.432C7.44706 17.432 6.07906 17.256 4.52706 16.904V11.144L0.687063 12.08V10.496L4.52706 9.56V7.16L0.615063 8.096V6.584L4.52706 5.6V0.151999H6.78306V5.048L11.0311 3.992V5.576L6.78306 6.608V9.008L10.9351 8V9.584L6.78306 10.592V15.2C7.29506 15.312 7.91106 15.368 8.63106 15.368C10.9031 15.368 12.5511 14.664 13.5751 13.256C14.6151 11.848 15.1351 9.76 15.1351 6.992H17.3671Z" fill="#00C466"/>
</svg>
