<svg width="48" height="48" viewBox="0 0 48 48" fill="none" xmlns="http://www.w3.org/2000/svg">
<circle cx="24" cy="24" r="24" fill="#00C466"/>
<path d="M31.3671 21.992C31.3671 25.512 30.6711 28.136 29.2791 29.864C27.8871 31.576 25.6711 32.432 22.6311 32.432C21.4471 32.432 20.0791 32.256 18.5271 31.904V26.144L14.6871 27.08V25.496L18.5271 24.56V22.16L14.6151 23.096V21.584L18.5271 20.6V15.152H20.7831V20.048L25.0311 18.992V20.576L20.7831 21.608V24.008L24.9351 23V24.584L20.7831 25.592V30.2C21.2951 30.312 21.9111 30.368 22.6311 30.368C24.9031 30.368 26.5511 29.664 27.5751 28.256C28.6151 26.848 29.1351 24.76 29.1351 21.992H31.3671Z" fill="white"/>
</svg>
