<svg width="48" height="48" viewBox="0 0 48 48" fill="none" xmlns="http://www.w3.org/2000/svg">
<circle cx="24" cy="24" r="24" fill="#D12F5A"/>
<path d="M32.38 20.57L31.15 22.42C31.7432 23.6031 32.0336 24.9148 31.9952 26.2377C31.9568 27.5606 31.5908 28.8533 30.93 30H17.07C16.2112 28.5101 15.8553 26.7831 16.0551 25.0751C16.255 23.367 16.9999 21.7688 18.1795 20.5174C19.359 19.266 20.9105 18.428 22.6037 18.1277C24.297 17.8273 26.042 18.0806 27.58 18.85L29.43 17.62C27.5465 16.4122 25.3123 15.871 23.0849 16.0829C20.8574 16.2949 18.7654 17.2477 17.1435 18.789C15.5215 20.3303 14.4634 22.3711 14.1382 24.5848C13.8131 26.7986 14.2397 29.0574 15.35 31C15.5245 31.3023 15.7751 31.5536 16.0768 31.7291C16.3786 31.9045 16.721 31.9979 17.07 32H30.92C31.2724 32.0014 31.6189 31.9096 31.9245 31.734C32.2301 31.5584 32.4838 31.3052 32.66 31C33.5814 29.4039 34.0438 27.5843 33.9961 25.742C33.9485 23.8996 33.3926 22.1063 32.39 20.56L32.38 20.57Z" fill="white"/>
<path d="M22.59 27.41C22.7757 27.596 22.9963 27.7435 23.2391 27.8442C23.4819 27.9448 23.7422 27.9966 24.005 27.9966C24.2678 27.9966 24.5281 27.9448 24.7709 27.8442C25.0137 27.7435 25.2342 27.596 25.42 27.41L31.08 18.92L22.59 24.58C22.404 24.7658 22.2565 24.9864 22.1559 25.2292C22.0552 25.472 22.0034 25.7322 22.0034 25.995C22.0034 26.2579 22.0552 26.5181 22.1559 26.7609C22.2565 27.0037 22.404 27.2243 22.59 27.41Z" fill="white"/>
</svg>
