<svg width="40" height="32" viewBox="0 0 40 32" fill="none" xmlns="http://www.w3.org/2000/svg">
<mask id="mask0" mask-type="alpha" maskUnits="userSpaceOnUse" x="0" y="0" width="40" height="32">
<rect width="40" height="32" rx="8" fill="#C4C4C4"/>
</mask>
<g mask="url(#mask0)">
<path d="M47.5 0H-0.5V32H47.5V0Z" fill="#E30A17"/>
<path d="M16.5 8C19.347 8 21.8466 9.48717 23.2645 11.727C22.0928 10.4212 20.3923 9.6 18.5 9.6C14.9654 9.6 12.1 12.4654 12.1 16C12.1 19.5346 14.9654 22.4 18.5 22.4C20.3923 22.4 22.0928 21.5788 23.2645 20.2732C21.8466 22.5128 19.347 24 16.5 24C12.0817 24 8.5 20.4183 8.5 16C8.5 11.5817 12.0817 8 16.5 8ZM22.8334 16L30.0694 18.3512L25.5972 12.1958V19.8042L30.0694 13.6488L22.8334 16Z" fill="white"/>
</g>
</svg>
