<svg width="56" height="40" viewBox="0 0 56 40" fill="none" xmlns="http://www.w3.org/2000/svg">
<mask id="mask0" mask-type="alpha" maskUnits="userSpaceOnUse" x="0" y="0" width="56" height="40">
<rect width="56" height="40" rx="8" fill="#C4C4C4"/>
</mask>
<g mask="url(#mask0)">
<path d="M57.5 0H-2.5V40H57.5V0Z" fill="#E30A17"/>
<path d="M18.75 10C22.3087 10 25.4333 11.859 27.2056 14.6588C25.741 13.0266 23.6154 12 21.25 12C16.8317 12 13.25 15.5817 13.25 20C13.25 24.4183 16.8317 28 21.25 28C23.6154 28 25.741 26.9734 27.2056 25.3415C25.4333 28.141 22.3087 30 18.75 30C13.2272 30 8.75 25.5228 8.75 20C8.75 14.4772 13.2272 10 18.75 10ZM26.6667 20L35.7118 22.9389L30.1216 15.2447V24.7553L35.7118 17.061L26.6667 20Z" fill="white"/>
</g>
</svg>
