<svg width="32" height="32" viewBox="0 0 32 32" fill="none" xmlns="http://www.w3.org/2000/svg">
<mask id="mask0" mask-type="alpha" maskUnits="userSpaceOnUse" x="0" y="0" width="32" height="32">
<path d="M32 16C32 7.16344 24.8366 0 16 0C7.16344 0 0 7.16344 0 16C0 24.8366 7.16344 32 16 32C24.8366 32 32 24.8366 32 16Z" fill="white"/>
</mask>
<g mask="url(#mask0)">
<path d="M62.3846 -1H-3V33H62.3846V-1Z" fill="#B22234"/>
<path d="M-3 2.99268H62.3846H-3ZM62.3846 8.20228H-3H62.3846ZM-3 13.4119H62.3846H-3ZM62.3846 18.6215H-3H62.3846ZM-3 23.8311H62.3846H-3ZM62.3846 29.0407H-3H62.3846Z" fill="black"/>
<path d="M62.3846 29.0407H-3M-3 2.99268H62.3846H-3ZM62.3846 8.20228H-3H62.3846ZM-3 13.4119H62.3846H-3ZM62.3846 18.6215H-3H62.3846ZM-3 23.8311H62.3846H-3Z" stroke="white" stroke-width="2.5"/>
<path d="M23.1538 -1H-3V17.3077H23.1538V-1Z" fill="#3C3B6E"/>
<path d="M3.61267 2.76367L4.22798 4.70898L2.61707 3.50671H4.60826L2.99735 4.70898L3.61267 2.76367ZM3.61267 6.52735L4.22798 8.47265L2.61707 7.27039H4.60826L2.99735 8.47265L3.61267 6.52735ZM3.61267 10.291L4.22798 12.2363L2.61707 11.0341H4.60826L2.99735 12.2363L3.61267 10.291ZM5.76739 4.64551L6.38271 6.59081L4.7718 5.38855H6.76299L5.15208 6.59081L5.76739 4.64551ZM5.76739 8.40919L6.38271 10.3545L4.7718 9.15223H6.76299L5.15208 10.3545L5.76739 8.40919ZM5.76739 12.1729L6.38271 14.1182L4.7718 12.9159H6.76299L5.15208 14.1182L5.76739 12.1729ZM12.2316 2.76367L12.8469 4.70898L11.236 3.50671H13.2272L11.6163 4.70898L12.2316 2.76367ZM12.2316 6.52735L12.8469 8.47265L11.236 7.27039H13.2272L11.6163 8.47265L12.2316 6.52735ZM12.2316 10.291L12.8469 12.2363L11.236 11.0341H13.2272L11.6163 12.2363L12.2316 10.291ZM14.3863 4.64551L15.0016 6.59081L13.3907 5.38855H15.3819L13.771 6.59081L14.3863 4.64551ZM14.3863 8.40919L15.0016 10.3545L13.3907 9.15223H15.3819L13.771 10.3545L14.3863 8.40919ZM14.3863 12.1729L15.0016 14.1182L13.3907 12.9159H15.3819L13.771 14.1182L14.3863 12.1729ZM-0.696787 2.76367L-0.0814755 4.70898L-1.69238 3.50671H0.298808L-1.3121 4.70898L-0.696787 2.76367ZM-0.696787 6.52735L-0.0814755 8.47265L-1.69238 7.27039H0.298808L-1.3121 8.47265L-0.696787 6.52735ZM-0.696787 10.291L-0.0814755 12.2363L-1.69238 11.0341H0.298808L-1.3121 12.2363L-0.696787 10.291ZM1.45794 4.64551L2.07325 6.59081L0.462344 5.38855H2.45354L0.842628 6.59081L1.45794 4.64551ZM1.45794 8.40919L2.07325 10.3545L0.462344 9.15223H2.45354L0.842628 10.3545L1.45794 8.40919ZM1.45794 12.1729L2.07325 14.1182L0.462344 12.9159H2.45354L0.842628 14.1182L1.45794 12.1729ZM3.61267 -1L4.22798 0.9453L2.61707 -0.256961H4.60826L2.99735 0.9453L3.61267 -1ZM3.61267 14.0547L4.22798 16L2.61707 14.7977H4.60826L2.99735 16L3.61267 14.0547ZM5.76739 0.881837L6.38271 2.82714L4.7718 1.62488H6.76299L5.15208 2.82714L5.76739 0.881837ZM7.92212 2.76367L8.53743 4.70898L6.92653 3.50671H8.91772L7.30681 4.70898L7.92212 2.76367ZM7.92212 6.52735L8.53743 8.47265L6.92653 7.27039H8.91772L7.30681 8.47265L7.92212 6.52735ZM7.92212 10.291L8.53743 12.2363L6.92653 11.0341H8.91772L7.30681 12.2363L7.92212 10.291ZM10.0768 4.64551L10.6922 6.59081L9.08125 5.38855H11.0724L9.46154 6.59081L10.0768 4.64551ZM10.0768 8.40919L10.6922 10.3545L9.08125 9.15223H11.0724L9.46154 10.3545L10.0768 8.40919ZM10.0768 12.1729L10.6922 14.1182L9.08125 12.9159H11.0724L9.46154 14.1182L10.0768 12.1729ZM12.2316 -1L12.8469 0.9453L11.236 -0.256961H13.2272L11.6163 0.9453L12.2316 -1ZM12.2316 14.0547L12.8469 16L11.236 14.7977H13.2272L11.6163 16L12.2316 14.0547ZM14.3863 0.881837L15.0016 2.82714L13.3907 1.62488H15.3819L13.771 2.82714L14.3863 0.881837ZM-0.696787 -1L-0.0814755 0.9453L-1.69238 -0.256961H0.298808L-1.3121 0.9453L-0.696787 -1ZM-0.696787 14.0547L-0.0814755 16L-1.69238 14.7977H0.298808L-1.3121 16L-0.696787 14.0547ZM1.45794 0.881837L2.07325 2.82714L0.462344 1.62488H2.45354L0.842628 2.82714L1.45794 0.881837ZM7.92212 -1L8.53743 0.9453L6.92653 -0.256961H8.91772L7.30681 0.9453L7.92212 -1ZM7.92212 14.0547L8.53743 16L6.92653 14.7977H8.91772L7.30681 16L7.92212 14.0547ZM10.0768 0.881837L10.6922 2.82714L9.08125 1.62488H11.0724L9.46154 2.82714L10.0768 0.881837ZM16.541 2.76367L17.1563 4.70898L15.5454 3.50671H17.5366L15.9257 4.70898L16.541 2.76367ZM16.541 6.52735L17.1563 8.47265L15.5454 7.27039H17.5366L15.9257 8.47265L16.541 6.52735ZM16.541 10.291L17.1563 12.2363L15.5454 11.0341H17.5366L15.9257 12.2363L16.541 10.291ZM16.541 -1L17.1563 0.9453L15.5454 -0.256961H17.5366L15.9257 0.9453L16.541 -1ZM16.541 14.0547L17.1563 16L15.5454 14.7977H17.5366L15.9257 16L16.541 14.0547ZM18.6958 12.1729L19.3111 14.1182L17.7002 12.9159H19.6914L18.0804 14.1182L18.6958 12.1729ZM18.6958 8.40919L19.3111 10.3545L17.7002 9.15223H19.6914L18.0804 10.3545L18.6958 8.40919ZM18.6958 4.64551L19.3111 6.59081L17.7002 5.38855H19.6914L18.0804 6.59081L18.6958 4.64551ZM18.6958 0.881837L19.3111 2.82714L17.7002 1.62488H19.6914L18.0804 2.82714L18.6958 0.881837ZM20.8505 6.52735L21.4658 8.47265L19.8549 7.27039H21.8461L20.2352 8.47265L20.8505 6.52735ZM20.8505 10.291L21.4658 12.2363L19.8549 11.0341H21.8461L20.2352 12.2363L20.8505 10.291ZM20.8505 2.76367L21.4658 4.70898L19.8549 3.50671H21.8461L20.2352 4.70898L20.8505 2.76367ZM20.8505 -1L21.4658 0.9453L19.8549 -0.256961H21.8461L20.2352 0.9453L20.8505 -1ZM20.8505 14.0547L21.4658 16L19.8549 14.7977H21.8461L20.2352 16L20.8505 14.0547Z" fill="white"/>
<path d="M16 0.5C24.5604 0.5 31.5 7.43959 31.5 16C31.5 24.5604 24.5604 31.5 16 31.5C7.43959 31.5 0.5 24.5604 0.5 16C0.5 7.43959 7.43959 0.5 16 0.5Z" stroke="#F5F7FA"/>
</g>
</svg>
