<svg width="62" height="42" viewBox="0 0 62 42" fill="none" xmlns="http://www.w3.org/2000/svg">
<mask id="mask0" mask-type="alpha" maskUnits="userSpaceOnUse" x="2" y="0" width="56" height="40">
<rect x="2" width="56" height="40" rx="8" fill="#C4C4C4"/>
</mask>
<g mask="url(#mask0)">
<path d="M81.9808 -1.25H0.25V41.25H81.9808V-1.25Z" fill="#B22234"/>
<path d="M0.25 3.74048H81.9808H0.25ZM81.9808 10.2525H0.25H81.9808ZM0.25 16.7645H81.9808H0.25ZM81.9808 23.2765H0.25H81.9808ZM0.25 29.7885H81.9808H0.25ZM81.9808 36.3005H0.25Z" fill="black"/>
<path d="M81.9808 36.3005H0.25M0.25 3.74048H81.9808H0.25ZM81.9808 10.2525H0.25H81.9808ZM0.25 16.7645H81.9808H0.25ZM81.9808 23.2765H0.25H81.9808ZM0.25 29.7885H81.9808H0.25Z" stroke="white" stroke-width="2.5"/>
<path d="M32.9423 -1.25H0.25V21.6346H32.9423V-1.25Z" fill="#3C3B6E"/>
<path d="M8.5151 3.45459L9.28424 5.88622L7.27061 4.38339H9.7596L7.74596 5.88622L8.5151 3.45459ZM8.5151 8.15919L9.28424 10.5908L7.27061 9.08799H9.7596L7.74596 10.5908L8.5151 8.15919ZM8.5151 12.8638L9.28424 15.2954L7.27061 13.7926H9.7596L7.74596 15.2954L8.5151 12.8638ZM11.2085 5.80689L11.9777 8.23852L9.96402 6.73569H12.453L10.4394 8.23852L11.2085 5.80689ZM11.2085 10.5115L11.9777 12.9431L9.96402 11.4403H12.453L10.4394 12.9431L11.2085 10.5115ZM11.2085 15.2161L11.9777 17.6477L9.96402 16.1449H12.453L10.4394 17.6477L11.2085 15.2161ZM19.2887 3.45459L20.0579 5.88622L18.0442 4.38339H20.5332L18.5196 5.88622L19.2887 3.45459ZM19.2887 8.15919L20.0579 10.5908L18.0442 9.08799H20.5332L18.5196 10.5908L19.2887 8.15919ZM19.2887 12.8638L20.0579 15.2954L18.0442 13.7926H20.5332L18.5196 15.2954L19.2887 12.8638ZM21.9821 5.80689L22.7513 8.23852L20.7377 6.73569H23.2266L21.213 8.23852L21.9821 5.80689ZM21.9821 10.5115L22.7513 12.9431L20.7377 11.4403H23.2266L21.213 12.9431L21.9821 10.5115ZM21.9821 15.2161L22.7513 17.6477L20.7377 16.1449H23.2266L21.213 17.6477L21.9821 15.2161ZM3.12828 3.45459L3.89742 5.88622L1.88379 4.38339H4.37278L2.35914 5.88622L3.12828 3.45459ZM3.12828 8.15919L3.89742 10.5908L1.88379 9.08799H4.37278L2.35914 10.5908L3.12828 8.15919ZM3.12828 12.8638L3.89742 15.2954L1.88379 13.7926H4.37278L2.35914 15.2954L3.12828 12.8638ZM5.82169 5.80689L6.59083 8.23852L4.5772 6.73569H7.06619L5.05255 8.23852L5.82169 5.80689ZM5.82169 10.5115L6.59083 12.9431L4.5772 11.4403H7.06619L5.05255 12.9431L5.82169 10.5115ZM5.82169 15.2161L6.59083 17.6477L4.5772 16.1449H7.06619L5.05255 17.6477L5.82169 15.2161ZM8.5151 -1.25L9.28424 1.18163L7.27061 -0.321202H9.7596L7.74596 1.18163L8.5151 -1.25ZM8.5151 17.5684L9.28424 20L7.27061 18.4972H9.7596L7.74596 20L8.5151 17.5684ZM11.2085 1.1023L11.9777 3.53392L9.96402 2.0311H12.453L10.4394 3.53392L11.2085 1.1023ZM13.9019 3.45459L14.6711 5.88622L12.6574 4.38339H15.1464L13.1328 5.88622L13.9019 3.45459ZM13.9019 8.15919L14.6711 10.5908L12.6574 9.08799H15.1464L13.1328 10.5908L13.9019 8.15919ZM13.9019 12.8638L14.6711 15.2954L12.6574 13.7926H15.1464L13.1328 15.2954L13.9019 12.8638ZM16.5953 5.80689L17.3645 8.23852L15.3508 6.73569H17.8398L15.8262 8.23852L16.5953 5.80689ZM16.5953 10.5115L17.3645 12.9431L15.3508 11.4403H17.8398L15.8262 12.9431L16.5953 10.5115ZM16.5953 15.2161L17.3645 17.6477L15.3508 16.1449H17.8398L15.8262 17.6477L16.5953 15.2161ZM19.2887 -1.25L20.0579 1.18163L18.0442 -0.321202H20.5332L18.5196 1.18163L19.2887 -1.25ZM19.2887 17.5684L20.0579 20L18.0442 18.4972H20.5332L18.5196 20L19.2887 17.5684ZM21.9821 1.1023L22.7513 3.53392L20.7377 2.0311H23.2266L21.213 3.53392L21.9821 1.1023ZM3.12828 -1.25L3.89742 1.18163L1.88379 -0.321202H4.37278L2.35914 1.18163L3.12828 -1.25ZM3.12828 17.5684L3.89742 20L1.88379 18.4972H4.37278L2.35914 20L3.12828 17.5684ZM5.82169 1.1023L6.59083 3.53392L4.5772 2.0311H7.06619L5.05255 3.53392L5.82169 1.1023ZM13.9019 -1.25L14.6711 1.18163L12.6574 -0.321202H15.1464L13.1328 1.18163L13.9019 -1.25ZM13.9019 17.5684L14.6711 20L12.6574 18.4972H15.1464L13.1328 20L13.9019 17.5684ZM16.5953 1.1023L17.3645 3.53392L15.3508 2.0311H17.8398L15.8262 3.53392L16.5953 1.1023ZM24.6756 3.45459L25.4447 5.88622L23.4311 4.38339H25.9201L23.9064 5.88622L24.6756 3.45459ZM24.6756 8.15919L25.4447 10.5908L23.4311 9.08799H25.9201L23.9064 10.5908L24.6756 8.15919ZM24.6756 12.8638L25.4447 15.2954L23.4311 13.7926H25.9201L23.9064 15.2954L24.6756 12.8638ZM24.6756 -1.25L25.4447 1.18163L23.4311 -0.321202H25.9201L23.9064 1.18163L24.6756 -1.25ZM24.6756 17.5684L25.4447 20L23.4311 18.4972H25.9201L23.9064 20L24.6756 17.5684ZM27.369 15.2161L28.1381 17.6477L26.1245 16.1449H28.6135L26.5998 17.6477L27.369 15.2161ZM27.369 10.5115L28.1381 12.9431L26.1245 11.4403H28.6135L26.5998 12.9431L27.369 10.5115ZM27.369 5.80689L28.1381 8.23852L26.1245 6.73569H28.6135L26.5998 8.23852L27.369 5.80689ZM27.369 1.1023L28.1381 3.53392L26.1245 2.0311H28.6135L26.5998 3.53392L27.369 1.1023ZM30.0624 8.15919L30.8315 10.5908L28.8179 9.08799H31.3069L29.2932 10.5908L30.0624 8.15919ZM30.0624 12.8638L30.8315 15.2954L28.8179 13.7926H31.3069L29.2932 15.2954L30.0624 12.8638ZM30.0624 3.45459L30.8315 5.88622L28.8179 4.38339H31.3069L29.2932 5.88622L30.0624 3.45459ZM30.0624 -1.25L30.8315 1.18163L28.8179 -0.321202H31.3069L29.2932 1.18163L30.0624 -1.25ZM30.0624 17.5684L30.8315 20L28.8179 18.4972H31.3069L29.2932 20L30.0624 17.5684Z" fill="white"/>
</g>
</svg>
