<svg width="40" height="32" viewBox="0 0 40 32" fill="none" xmlns="http://www.w3.org/2000/svg">
<mask id="mask0" mask-type="alpha" maskUnits="userSpaceOnUse" x="0" y="0" width="40" height="32">
<rect width="40" height="32" rx="8" fill="#C4C4C4"/>
</mask>
<g mask="url(#mask0)">
<path d="M63.6346 -1.25H-1.75V32.75H63.6346V-1.25Z" fill="#B22234"/>
<path d="M-1.75 2.74243H63.6346H-1.75ZM63.6346 7.95204H-1.75H63.6346ZM-1.75 13.1616H63.6346H-1.75ZM63.6346 18.3712H-1.75H63.6346ZM-1.75 23.5809H63.6346H-1.75ZM63.6346 28.7905H-1.75H63.6346Z" fill="black"/>
<path d="M63.6346 28.7905H-1.75M-1.75 2.74243H63.6346H-1.75ZM63.6346 7.95204H-1.75H63.6346ZM-1.75 13.1616H63.6346H-1.75ZM63.6346 18.3712H-1.75H63.6346ZM-1.75 23.5809H63.6346H-1.75Z" stroke="white" stroke-width="2.5"/>
<path d="M24.4038 -1.25H-1.75V17.0577H24.4038V-1.25Z" fill="#3C3B6E"/>
<path d="M4.86169 2.51367L5.477 4.45898L3.8661 3.25671H5.85729L4.24638 4.45898L4.86169 2.51367ZM4.86169 6.27735L5.477 8.22265L3.8661 7.02039H5.85729L4.24638 8.22265L4.86169 6.27735ZM4.86169 10.041L5.477 11.9863L3.8661 10.7841H5.85729L4.24638 11.9863L4.86169 10.041ZM7.01642 4.39551L7.63173 6.34081L6.02082 5.13855H8.01201L6.40111 6.34081L7.01642 4.39551ZM7.01642 8.15919L7.63173 10.1045L6.02082 8.90223H8.01201L6.40111 10.1045L7.01642 8.15919ZM7.01642 11.9229L7.63173 13.8682L6.02082 12.6659H8.01201L6.40111 13.8682L7.01642 11.9229ZM13.4806 2.51367L14.0959 4.45898L12.485 3.25671H14.4762L12.8653 4.45898L13.4806 2.51367ZM13.4806 6.27735L14.0959 8.22265L12.485 7.02039H14.4762L12.8653 8.22265L13.4806 6.27735ZM13.4806 10.041L14.0959 11.9863L12.485 10.7841H14.4762L12.8653 11.9863L13.4806 10.041ZM15.6353 4.39551L16.2506 6.34081L14.6397 5.13855H16.6309L15.02 6.34081L15.6353 4.39551ZM15.6353 8.15919L16.2506 10.1045L14.6397 8.90223H16.6309L15.02 10.1045L15.6353 8.15919ZM15.6353 11.9229L16.2506 13.8682L14.6397 12.6659H16.6309L15.02 13.8682L15.6353 11.9229ZM0.552236 2.51367L1.16755 4.45898L-0.443359 3.25671H1.54783L-0.0630757 4.45898L0.552236 2.51367ZM0.552236 6.27735L1.16755 8.22265L-0.443359 7.02039H1.54783L-0.0630757 8.22265L0.552236 6.27735ZM0.552236 10.041L1.16755 11.9863L-0.443359 10.7841H1.54783L-0.0630757 11.9863L0.552236 10.041ZM2.70696 4.39551L3.32228 6.34081L1.71137 5.13855H3.70256L2.09165 6.34081L2.70696 4.39551ZM2.70696 8.15919L3.32228 10.1045L1.71137 8.90223H3.70256L2.09165 10.1045L2.70696 8.15919ZM2.70696 11.9229L3.32228 13.8682L1.71137 12.6659H3.70256L2.09165 13.8682L2.70696 11.9229ZM4.86169 -1.25L5.477 0.6953L3.8661 -0.506961H5.85729L4.24638 0.6953L4.86169 -1.25ZM4.86169 13.8047L5.477 15.75L3.8661 14.5477H5.85729L4.24638 15.75L4.86169 13.8047ZM7.01642 0.631837L7.63173 2.57714L6.02082 1.37488H8.01201L6.40111 2.57714L7.01642 0.631837ZM9.17115 2.51367L9.78646 4.45898L8.17555 3.25671H10.1667L8.55583 4.45898L9.17115 2.51367ZM9.17115 6.27735L9.78646 8.22265L8.17555 7.02039H10.1667L8.55583 8.22265L9.17115 6.27735ZM9.17115 10.041L9.78646 11.9863L8.17555 10.7841H10.1667L8.55583 11.9863L9.17115 10.041ZM11.3259 4.39551L11.9412 6.34081L10.3303 5.13855H12.3215L10.7106 6.34081L11.3259 4.39551ZM11.3259 8.15919L11.9412 10.1045L10.3303 8.90223H12.3215L10.7106 10.1045L11.3259 8.15919ZM11.3259 11.9229L11.9412 13.8682L10.3303 12.6659H12.3215L10.7106 13.8682L11.3259 11.9229ZM13.4806 -1.25L14.0959 0.6953L12.485 -0.506961H14.4762L12.8653 0.6953L13.4806 -1.25ZM13.4806 13.8047L14.0959 15.75L12.485 14.5477H14.4762L12.8653 15.75L13.4806 13.8047ZM15.6353 0.631837L16.2506 2.57714L14.6397 1.37488H16.6309L15.02 2.57714L15.6353 0.631837ZM0.552236 -1.25L1.16755 0.6953L-0.443359 -0.506961H1.54783L-0.0630757 0.6953L0.552236 -1.25ZM0.552236 13.8047L1.16755 15.75L-0.443359 14.5477H1.54783L-0.0630757 15.75L0.552236 13.8047ZM2.70696 0.631837L3.32228 2.57714L1.71137 1.37488H3.70256L2.09165 2.57714L2.70696 0.631837ZM9.17115 -1.25L9.78646 0.6953L8.17555 -0.506961H10.1667L8.55583 0.6953L9.17115 -1.25ZM9.17115 13.8047L9.78646 15.75L8.17555 14.5477H10.1667L8.55583 15.75L9.17115 13.8047ZM11.3259 0.631837L11.9412 2.57714L10.3303 1.37488H12.3215L10.7106 2.57714L11.3259 0.631837ZM17.7901 2.51367L18.4054 4.45898L16.7945 3.25671H18.7857L17.1747 4.45898L17.7901 2.51367ZM17.7901 6.27735L18.4054 8.22265L16.7945 7.02039H18.7857L17.1747 8.22265L17.7901 6.27735ZM17.7901 10.041L18.4054 11.9863L16.7945 10.7841H18.7857L17.1747 11.9863L17.7901 10.041ZM17.7901 -1.25L18.4054 0.6953L16.7945 -0.506961H18.7857L17.1747 0.6953L17.7901 -1.25ZM17.7901 13.8047L18.4054 15.75L16.7945 14.5477H18.7857L17.1747 15.75L17.7901 13.8047ZM19.9448 11.9229L20.5601 13.8682L18.9492 12.6659H20.9404L19.3295 13.8682L19.9448 11.9229ZM19.9448 8.15919L20.5601 10.1045L18.9492 8.90223H20.9404L19.3295 10.1045L19.9448 8.15919ZM19.9448 4.39551L20.5601 6.34081L18.9492 5.13855H20.9404L19.3295 6.34081L19.9448 4.39551ZM19.9448 0.631837L20.5601 2.57714L18.9492 1.37488H20.9404L19.3295 2.57714L19.9448 0.631837ZM22.0995 6.27735L22.7148 8.22265L21.1039 7.02039H23.0951L21.4842 8.22265L22.0995 6.27735ZM22.0995 10.041L22.7148 11.9863L21.1039 10.7841H23.0951L21.4842 11.9863L22.0995 10.041ZM22.0995 2.51367L22.7148 4.45898L21.1039 3.25671H23.0951L21.4842 4.45898L22.0995 2.51367ZM22.0995 -1.25L22.7148 0.6953L21.1039 -0.506961H23.0951L21.4842 0.6953L22.0995 -1.25ZM22.0995 13.8047L22.7148 15.75L21.1039 14.5477H23.0951L21.4842 15.75L22.0995 13.8047Z" fill="white"/>
</g>
</svg>
