<svg width="13" height="22" viewBox="0 0 13 22" fill="none" xmlns="http://www.w3.org/2000/svg">
<path d="M12.1832 14.416C12.1832 15.184 11.9912 15.92 11.6072 16.624C11.2232 17.312 10.6552 17.888 9.90316 18.352C9.16716 18.816 8.27916 19.08 7.23916 19.144V21.088H5.94316V19.144C4.48716 19.016 3.30316 18.552 2.39116 17.752C1.47916 16.936 1.01516 15.904 0.999156 14.656H3.32716C3.39116 15.328 3.63916 15.912 4.07116 16.408C4.51916 16.904 5.14316 17.216 5.94316 17.344V11.344C4.87116 11.072 4.00716 10.792 3.35116 10.504C2.69516 10.216 2.13516 9.768 1.67116 9.16C1.20716 8.552 0.975156 7.736 0.975156 6.712C0.975156 5.416 1.42316 4.344 2.31916 3.496C3.23116 2.648 4.43916 2.176 5.94316 2.08V0.0879989H7.23916V2.08C8.59916 2.192 9.69516 2.632 10.5272 3.4C11.3592 4.152 11.8392 5.136 11.9672 6.352H9.63916C9.55916 5.792 9.31116 5.288 8.89516 4.84C8.47916 4.376 7.92716 4.072 7.23916 3.928V9.784C8.29516 10.056 9.15116 10.336 9.80716 10.624C10.4792 10.896 11.0392 11.336 11.4872 11.944C11.9512 12.552 12.1832 13.376 12.1832 14.416ZM3.20716 6.592C3.20716 7.376 3.43916 7.976 3.90316 8.392C4.36716 8.808 5.04716 9.152 5.94316 9.424V3.88C5.11116 3.96 4.44716 4.232 3.95116 4.696C3.45516 5.144 3.20716 5.776 3.20716 6.592ZM7.23916 17.368C8.10316 17.272 8.77516 16.96 9.25516 16.432C9.75116 15.904 9.99916 15.272 9.99916 14.536C9.99916 13.752 9.75916 13.152 9.27916 12.736C8.79916 12.304 8.11916 11.96 7.23916 11.704V17.368Z" fill="#007DC4"/>
</svg>
