<svg width="20" height="20" viewBox="0 0 20 20" fill="none" xmlns="http://www.w3.org/2000/svg">
<g opacity="0.5">
<path d="M13.6667 10.3332H6.33342V9.6665H13.6667V10.3332ZM2.16675 9.99984C2.16675 5.67598 5.67622 2.1665 10.0001 2.1665C14.3239 2.1665 17.8334 5.67598 17.8334 9.99984C17.8334 14.3237 14.3239 17.8332 10.0001 17.8332C5.67622 17.8332 2.16675 14.3237 2.16675 9.99984ZM2.83341 9.99984C2.83341 13.951 6.04894 17.1665 10.0001 17.1665C13.9512 17.1665 17.1667 13.951 17.1667 9.99984C17.1667 6.0487 13.9512 2.83317 10.0001 2.83317C6.04894 2.83317 2.83341 6.0487 2.83341 9.99984Z" fill="#585A58" stroke="black"/>
</g>
</svg>
